<svg width="351" height="378" viewBox="0 0 351 378" fill="none" xmlns="http://www.w3.org/2000/svg">
<path d="M288.41 51.1532C322.733 78.8723 350.003 115.988 350.944 152.633C352.354 189.749 326.965 226.864 301.575 256.932C276.186 286.531 250.326 309.552 215.533 333.512C180.74 357.473 136.543 382.843 96.1078 377.205C55.6726 371.097 18.9988 334.922 5.83381 293.578C-6.86097 252.704 3.95312 206.662 11.9461 160.15C19.469 113.639 24.1707 65.7175 50.5006 36.5889C76.8306 7.46038 124.318 -3.34536 168.985 0.882974C213.182 4.6415 254.558 23.4341 288.41 51.1532Z" fill="#718093"/>
<path d="M271.582 46.9581C303.069 72.4039 328.086 106.475 328.948 140.116C330.242 174.187 306.951 208.259 283.659 235.861C260.367 263.032 236.644 284.165 204.725 306.161C172.807 328.156 132.262 351.446 95.1673 346.27C58.0729 340.663 24.4291 307.454 12.3518 269.501C0.705892 231.98 10.6265 189.714 17.9591 147.016C24.8604 104.319 29.1737 60.3279 53.3282 33.5882C77.4827 6.84855 121.047 -3.07101 162.024 0.810561C202.569 4.26084 240.526 21.5123 271.582 46.9581Z" fill="#7F8FA6"/>
</svg>
